<svg width="512pt" height="512pt" viewBox="0 0 512 512" xmlns="http://www.w3.org/2000/svg"><g fill="#fbb03b"><path d="M202.16 58.06c11.76-8.56 25.08-16.11 39.87-17.25 15.21-1.1 29.96 5.28 41.88 14.31 8.08 6.18 16.68 12.15 22.69 20.5-5.19.92-10.38-.25-15.56-.55-5.48-.47-10.97-.45-16.46-.64-12.36-.36-24.69.78-36.95 2.21-6.65-4.07-14.18-6.54-20.94-10.44-4.81-2.76-10.59-4.05-14.53-8.14zM202.39 148.23c6.22-.47 12.41.62 18.63.37 9.46.12 18.93-.05 28.39-.06 8.62.28 17.1 1.91 25.63 3.07 5.09.67 10.13 1.65 15.13 2.82-8.89.86-17.42 3.87-26.23 5.37-5.82.71-10.83 3.88-16.27 5.78-9.48 3.19-18.07 8.61-27.8 11.11-3.62.65-7.26-.24-10.86-.66-5.97-.83-12.01-.11-18-.38-9.75-1.1-19.32 1.79-29.02 2.16-7.46 1.25-14.88 2.82-22.36 3.99 3.02-5.12 6.09-10.25 9.96-14.78 5.61-6.92 13.99-10.58 22.39-12.81 9.92-2.93 20.09-5.16 30.41-5.98zM244.94 175.81c4.38.79 8.79 1.37 13.18 2.17 17.21 2.82 34.42 5.87 51.83 7.16 1.19.44 2.35.93 3.53 1.42-16.42 14.41-36.94 24.12-58.5 27.68-7.46 1.18-15.75 1.28-22.32-2.98-5.17-3.1-8.7-9.13-7.8-15.25 1.21-7.74 7.08-14.11 13.97-17.45 1.96-1.08 4.22-1.53 6.11-2.75zM54.58 250.01c3.48-11.18 9.48-21.83 18.21-29.73-.83 5.47-5.55 9.17-7.25 14.32-2.75 8.24-4.64 16.78-5.79 25.39.31 9.17.25 18.51 2.88 27.39.82 5.06 2.02 10.04 4.38 14.64 1.74 5.61 3.97 11.24 8.48 15.25.24 6.04.76 12.08 1.45 18.1-10.26-5.33-15.7-16.3-19.4-26.73-6.6-18.66-8.83-39.48-2.96-58.63z"/></g><g fill="#e59f35"><path d="M200.1 60.03c.5-.83 1.33-1.36 2.06-1.97 3.94 4.09 9.72 5.38 14.53 8.14 6.76 3.9 14.29 6.37 20.94 10.44l.4.94c-2.51-.39-5.06-.29-7.51.35-8.89-4.17-17.63-8.65-26.45-12.97-1.9-.95-4.49-2.39-3.97-4.93zM290.17 154.43c.61.07 1.83.22 2.44.3 2.83 1.07 6.96.47 8.71 3.28-1.07 3.1-5.19 2.4-7.72 3.34l-1.54.24c-4.82.87-9.64 1.74-14.43 2.78-7.34 1.68-14.47 4.16-21.5 6.82-3.78 1.43-7.57 2.83-11.19 4.62-7.15 1.97-13.18 8.27-21.04 6.99-16.28-1.74-32.81-1.95-49.03.55-12.9 1.86-25.88 3.58-38.46 7.1l-.81-1.43c1.21-2.48 2.59-4.87 4.03-7.22 7.48-1.17 14.9-2.74 22.36-3.99 9.7-.37 19.27-3.26 29.02-2.16 5.99.27 12.03-.45 18 .38 3.6.42 7.24 1.31 10.86.66 9.73-2.5 18.32-7.92 27.8-11.11 5.44-1.9 10.45-5.07 16.27-5.78 8.81-1.5 17.34-4.51 26.23-5.37zM74.04 218.65c1.83-1.46 3.82-2.7 5.71-4.07-.5 10.78-1.55 21.54-2.51 32.29 5.78-5.33 9.57-12.54 14.01-18.98 1.44-2.89 3.64-5.28 5.86-7.58 4.77 6.1 13.31 6.67 18.51 12.18 1.51 1.78 3.14 4.11 2.46 6.57-.9 1.76-2.92 2.34-4.55 3.2-9.13 4.3-19.15 7.5-26.64 14.56-4.79 4.44-7.45 10.67-8.61 17-2.55 14.32-3.21 28.92-2.79 43.45-4.51-4.01-6.74-9.64-8.48-15.25-2.36-4.6-3.56-9.58-4.38-14.64-2.63-8.88-2.57-18.22-2.88-27.39 1.15-8.61 3.04-17.15 5.79-25.39 1.7-5.15 6.42-8.85 7.25-14.32.35-.6.76-1.14 1.25-1.63z"/></g><g fill="#4d4d4d"><path d="M237.63 76.64c12.26-1.43 24.59-2.57 36.95-2.21-1.55 8.05-.58 16.6-3.85 24.29-2.29 5.12-6.82 9.87-12.65 10.49-4.34.48-8.32-2.16-10.65-5.65-5.47-7.74-4.44-17.97-9.4-25.98l-.4-.94zM304 76.32c1.62.19 3.25.37 4.88.55 13.16 1.48 26.34 4.11 38.88 8.45-6.19 4.72-13.81 8.68-21.84 7.55-9.57-1.22-17.87-7.9-21.92-16.55zM183.73 91.68c9.38-4.17 19.19-7.5 29.18-9.84 3.71 12.04 7.42 24.08 11.14 36.11 1.1 3.89 2.02 8.3.11 12.1-1.39 2.97-4.69 5.39-8.08 4.48-3.93-1.09-6.67-4.36-9.49-7.1-10.11-10.08-17.73-22.46-22.86-35.75zM288.87 100.82c1.43-1.82 3.92-2.33 6.13-2.14 6.46.5 12.92 3.24 17.26 8.15 3.51 4.22 4.83 9.81 5.14 15.19.53 13.69-3.53 27.14-2.57 40.84-3.08.22-6.19.13-9.24-.41-3.97-.72-8.05-.19-11.99-1.1 2.53-.94 6.65-.24 7.72-3.34-1.75-2.81-5.88-2.21-8.71-3.28.11-15.46-5.46-30.28-5.7-45.71.01-2.81.13-5.9 1.96-8.2zM362.32 110.38l.65-.71c6.36.38 10.27 8.24 7.39 13.75-2.15 4.88-8.6 7.15-13.31 4.6-5.1-2.28-6.9-9.12-4.13-13.84l.8.37c3.37 1.43 6.42-1.94 8.6-4.17zM130.38 124.19c5.26-4.79 11.08-9.01 17.03-12.91 3.8 5.21 7.83 10.25 11.56 15.51-8.29 7.27-21.18 4.64-28.59-2.6zM248.62 132.55c3.81-2.04 8.02-3.74 12.41-3.69 3.92.02 7.47 2.6 9.16 6.06 2.65 5.2 3.49 11.07 4.85 16.69-8.53-1.16-17.01-2.79-25.63-3.07-.96-3.86-2.41-7.59-3.16-11.5-.43-1.87.72-3.68 2.37-4.49zM176.07 133.99c.55-1.7 2.56-1.49 3.83-.82 8.51 3.26 16.04 8.7 22.49 15.06-10.32.82-20.49 3.05-30.41 5.98-.47.07-1.43.22-1.91.3l.4-3.41c1.02-5.93 3.17-11.62 5.6-17.11zM120.72 147.71c3.69-2.92 8.92-3.22 13.26-1.7 5.51 2.14 9.43 6.98 12.15 12.07-8.67 3.07-16.73 7.66-24.53 12.49-3.16 2.22-7.48 4.11-7.91 8.48-.06-.56-.19-1.68-.26-2.24-.52-7.08 1.04-14.06 2.68-20.89.77-3.07 2.07-6.2 4.61-8.21zM84.63 181.62c3.25-8.1 7.62-15.84 13.05-22.68.29 5.37 1.33 11.02-.52 16.22-1.88 5.01-7.84 6.11-12.53 6.46zM350.74 168.58c2.83-1.54 3.46-6.91 7.35-5.61 4.02 1 6.75 5.05 6.39 9.15-.66 3.77-3.6 6.71-7.34 7.42-5.76.72-10.88-5.13-9.21-10.75.7-.05 2.11-.15 2.81-.21zM143.9 333.97c1.1-3.23 4.25-5.14 7.47-5.74.5 3.67 4.32 4.43 7.29 5.26 1.58.37 1.3 2.3 1.44 3.53.1 4.63-4.44 8.78-9.07 8.12-5.26-.24-9.15-6.29-7.13-11.17zM135.49 386.86c.2-4.84 4.49-8.68 9.18-9.17.58 4.48 5.64 5.34 9.21 6.37l.8.22c1.86 5.57-1.83 12.25-7.77 13.04-6.05 1.34-12.07-4.38-11.42-10.46z"/></g><path fill="#f7931e" d="M274.58 74.43c5.49.19 10.98.17 16.46.64 5.18.3 10.37 1.47 15.56.55.65.6 1.39 1.07 2.28 1.25-1.63-.18-3.26-.36-4.88-.55 4.05 8.65 12.35 15.33 21.92 16.55 8.03 1.13 15.65-2.83 21.84-7.55 21.23 6.91 42.97 17.49 55.7 36.62-.33 9.08-6.51 16.84-13.6 21.96-7.51 5.98-16.57 9.42-25.41 12.88-6.53-2.73-14.53-.61-18.84 5.03-3.5-.35-7.04-.39-10.49.37-6.68 1.44-13.53.46-20.29.68-.96-13.7 3.1-27.15 2.57-40.84-.31-5.38-1.63-10.97-5.14-15.19-4.34-4.91-10.8-7.65-17.26-8.15-2.21-.19-4.7.32-6.13 2.14-1.83 2.3-1.95 5.39-1.96 8.2.24 15.43 5.81 30.25 5.7 45.71-.61-.08-1.83-.23-2.44-.3-5-1.17-10.04-2.15-15.13-2.82-1.36-5.62-2.2-11.49-4.85-16.69-1.69-3.46-5.24-6.04-9.16-6.06-4.39-.05-8.6 1.65-12.41 3.69-1.65.81-2.8 2.62-2.37 4.49.75 3.91 2.2 7.64 3.16 11.5-9.46.01-18.93.18-28.39.06-6.22.25-12.41-.84-18.63-.37-6.45-6.36-13.98-11.8-22.49-15.06-1.27-.67-3.28-.88-3.83.82-2.43 5.49-4.58 11.18-5.6 17.11-8.18 2.05-16.32 4.32-24.34 6.98-2.72-5.09-6.64-9.93-12.15-12.07-4.34-1.52-9.57-1.22-13.26 1.7-2.54 2.01-3.84 5.14-4.61 8.21-1.64 6.83-3.2 13.81-2.68 20.89-6.94 4.78-12.87 10.83-18.57 16.99-5.53 6.53-11.36 13.02-15.11 20.78-1.89 1.37-3.88 2.61-5.71 4.07 1.82-12.75 5.53-25.19 10.58-37.03h.01c4.69-.35 10.65-1.45 12.53-6.46 1.85-5.2.81-10.85.52-16.22 9.61-12.72 20.52-24.45 32.7-34.75 7.41 7.24 20.3 9.87 28.59 2.6-3.73-5.26-7.76-10.3-11.56-15.51 11.52-7.57 23.67-14.13 36.32-19.6 5.13 13.29 12.75 25.67 22.86 35.75 2.82 2.74 5.56 6.01 9.49 7.1 3.39.91 6.69-1.51 8.08-4.48 1.91-3.8.99-8.21-.11-12.1-3.72-12.03-7.43-24.07-11.14-36.11 5.83-1.48 11.7-2.77 17.61-3.91 2.45-.64 5-.74 7.51-.35 4.96 8.01 3.93 18.24 9.4 25.98 2.33 3.49 6.31 6.13 10.65 5.65 5.83-.62 10.36-5.37 12.65-10.49 3.27-7.69 2.3-16.24 3.85-24.29m79.71 29.79c-8.47 4.82-11.82 17.26-6.16 25.28 3.66 7.31 13.12 10.8 20.82 8.44 7.84-2.08 13.64-9.82 13.5-17.92-.11-4.95-1.99-10.29-6.04-13.35l-.07-.53c-6.07-5.11-15.24-6.24-22.05-1.92z"/><g fill="#e6e6e6"><path d="M354.29 104.22c6.81-4.32 15.98-3.19 22.05 1.92l.07.53c.52 4.94 1.65 10.32-.94 14.9-3.23 5.66-8.77 10.58-15.53 11.06-4.26.67-8.06-1.54-11.81-3.13-5.66-8.02-2.31-20.46 6.16-25.28m-.57 10.33l-.8-.37c-2.77 4.72-.97 11.56 4.13 13.84 4.71 2.55 11.16.28 13.31-4.6 2.88-5.51-1.03-13.37-7.39-13.75l-.65.71c-3.06-1.66-8.22.63-8.6 4.17zM345.61 161.81c4.31-5.64 12.31-7.76 18.84-5.03l1.57.88c.86 2.89 2.05 5.7 2.55 8.69.38 2.66-1.53 5.13-4.09 5.77.36-4.1-2.37-8.15-6.39-9.15-3.89-1.3-4.52 4.07-7.35 5.61-.7.06-2.11.16-2.81.21-1.67 5.62 3.45 11.47 9.21 10.75-.89 4.4-5.94 3.53-9.27 3.7-6.13-5.22-7.1-15.03-2.26-21.43z"/></g><path fill="#d1cfcf" d="M376.41 106.67c4.05 3.06 5.93 8.4 6.04 13.35.14 8.1-5.66 15.84-13.5 17.92-7.7 2.36-17.16-1.13-20.82-8.44 3.75 1.59 7.55 3.8 11.81 3.13 6.76-.48 12.3-5.4 15.53-11.06 2.59-4.58 1.46-9.96.94-14.9z"/><g fill="#c0c0c0"><path d="M353.72 114.55c.38-3.54 5.54-5.83 8.6-4.17-2.18 2.23-5.23 5.6-8.6 4.17zM144.67 377.69l1.22.06c3.48.38 6.4 2.5 8.36 5.33l-.37.98c-3.57-1.03-8.63-1.89-9.21-6.37z"/></g><g fill="#e2851b"><path d="M403.46 121.94c4.49 7.07 7.89 15.39 6.87 23.91-.88 7.62-5.58 14.23-11.32 19.08-7.81 6.62-17.31 10.84-26.91 14.14 4.12-7.27 1.42-17.52-6.08-21.41l-1.57-.88c8.84-3.46 17.9-6.9 25.41-12.88 7.09-5.12 13.27-12.88 13.6-21.96zM146.13 158.08c8.02-2.66 16.16-4.93 24.34-6.98l-.4 3.41c.48-.08 1.44-.23 1.91-.3-8.4 2.23-16.78 5.89-22.39 12.81-.88-3.09-2.1-6.05-3.46-8.94zM335.12 162.18c3.45-.76 6.99-.72 10.49-.37-4.84 6.4-3.87 16.21 2.26 21.43.65.5 1.33.99 2.02 1.45-1.98-.42-3.97.12-5.93.27-7.98.95-16.02.85-24.04.97-2.15.13-4.55-.74-6.44.63-1.18-.49-2.34-.98-3.53-1.42 4.73.31 9.47.7 14.22.61-1.51-2.45-3.62-4.47-4.95-7.03-2.75-4.84-3.83-10.39-4.39-15.86 6.76-.22 13.61.76 20.29-.68zM277.63 164.37c4.79-1.04 9.61-1.91 14.43-2.78-1.32 7.12-4.97 14.69-12.14 17.41-.78-4.88-1.48-9.76-2.29-14.63zM244.94 175.81c3.62-1.79 7.41-3.19 11.19-4.62.67 2.26 1.34 4.52 1.99 6.79-4.39-.8-8.8-1.38-13.18-2.17zM94.86 193.8c5.7-6.16 11.63-12.21 18.57-16.99.07.56.2 1.68.26 2.24 1.02 7.07 3.07 13.98 5.73 20.59l.01.01c-4.22 2.97-8.33 6.23-11.81 10.04-1.34-4.49-5.57-7.85-9.73-9.73-3.12-1.36-4.46 2.44-5.4 4.62-3.37 7.35-2.57 15.62-1.24 23.31-4.44 6.44-8.23 13.65-14.01 18.98.96-10.75 2.01-21.51 2.51-32.29 3.75-7.76 9.58-14.25 15.11-20.78z"/></g><g fill="#484646"><path d="M121.6 170.57c7.8-4.83 15.86-9.42 24.53-12.49 1.36 2.89 2.58 5.85 3.46 8.94-3.87 4.53-6.94 9.66-9.96 14.78-1.44 2.35-2.82 4.74-4.03 7.22-5.44 3.45-10.96 6.82-16.18 10.62-2.66-6.61-4.71-13.52-5.73-20.59.43-4.37 4.75-6.26 7.91-8.48zM292.06 161.59l1.54-.24c3.94.91 8.02.38 11.99 1.1 3.05.54 6.16.63 9.24.41.56 5.47 1.64 11.02 4.39 15.86 1.33 2.56 3.44 4.58 4.95 7.03-4.75.09-9.49-.3-14.22-.61-17.41-1.29-34.62-4.34-51.83-7.16-.65-2.27-1.32-4.53-1.99-6.79 7.03-2.66 14.16-5.14 21.5-6.82.81 4.87 1.51 9.75 2.29 14.63 7.17-2.72 10.82-10.29 12.14-17.41zM92.49 204.58c.94-2.18 2.28-5.98 5.4-4.62 4.16 1.88 8.39 5.24 9.73 9.73-3.71 3.35-6.96 7.14-10.51 10.62-2.22 2.3-4.42 4.69-5.86 7.58-1.33-7.69-2.13-15.96 1.24-23.31z"/></g><g fill="#d2d0d0"><path d="M366.02 157.66c7.5 3.89 10.2 14.14 6.08 21.41-4.14 7.65-14.95 10.56-22.21 5.62-.69-.46-1.37-.95-2.02-1.45 3.33-.17 8.38.7 9.27-3.7 3.74-.71 6.68-3.65 7.34-7.42 2.56-.64 4.47-3.11 4.09-5.77-.5-2.99-1.69-5.8-2.55-8.69zM137.33 333c2.6 5.29 4.36 12.03 10.61 14.14 4.2.75 8.92 1.99 12.86-.31 2.37-1.04 4.25-2.85 6.11-4.6.61 3.51-2.11 6.2-4.26 8.57-4.42 3.85-10.96 4.76-16.43 2.97-3.81-2.44-7.41-5.63-9.4-9.76-.45-3.67-.11-7.39.51-11.01z"/></g><path fill="#807b7b" d="M436.06 179.08c10.97 6.15 16.27 18.39 19.82 29.86 5.71 18.36 7.1 38.63.82 57.03-3.82 11.35-10.57 21.67-19.49 29.67-2.02 1.61-4.14 3.1-6.27 4.56.36-3.02.71-6.03 1.07-9.04 6.63-4.91 10.77-12.22 14.79-19.24 9-16.73 9.48-36.68 6.06-54.99-2.03-8.14-4.08-16.37-7.9-23.89-2.18-4.29-4.26-9.28-8.85-11.49l-.05-2.47z"/><g fill="#999"><path d="M436.11 181.55c4.59 2.21 6.67 7.2 8.85 11.49 3.82 7.52 5.87 15.75 7.9 23.89 3.42 18.31 2.94 38.26-6.06 54.99-4.02 7.02-8.16 14.33-14.79 19.24.49-7.51 1.53-14.96 2.08-22.46-5.41 5.74-9.15 12.77-14.12 18.85-2 2.02-3.62 4.39-5.76 6.29-5.02-6.26-13.98-6.95-19.01-13.1-1.77-2.05-3.26-6.05-.12-7.61 10.09-5.18 21.74-7.96 30.15-15.99 5.37-4.93 7.83-12.13 8.99-19.15 3.07-18.62 3.83-37.66 1.89-56.44zM247.83 299.17c9.08-1.95 19.02-3.76 27.85.18l.13.17c.57 3.86 3.08 7.41 2.33 11.44-.44 5.93-4.39 10.77-8.82 14.39-4.71 3.55-10.3 5.66-15.98 7.07l-.44 1.51-.14.7c-2.27-1.57-5.2-1.43-7.79-2.05-18.26-3.36-36.63-6.33-55.17-7.54 2.48-.42 5.49 1.02 7.56-.79 14.52-12.19 31.96-20.94 50.47-25.08zM334.09 329.94c13.32-1.74 26.7-3.33 39.75-6.58 1.19.55 2.26 1.05 3.31-.11-1.93.99-2.95 2.92-3.94 4.74-6.13.44-12.04 2.36-18.17 2.78-7.47 0-14.59 2.71-22.04 3.03-9.57.12-18.56 4.03-28.07 4.75-5.48.28-10.63 2.33-16.03 3.14-5.15 1.14-10.5 1.13-15.58 2.6-10.29 2.69-20.97 3.04-31.48 4.32-4.73.72-9.56-.31-14.24.86-1.98.49-4 .18-5.98-.09 3.71-.8 7.49-1.34 11.06-2.66 7.48-.61 14.54-3.75 21.64-6.05 3.75-1.34 7.4-2.92 11.05-4.49l.73-.16 1.88-.19c1.11-.44 2.13-1.04 3.13-1.68 4.59-2.37 9.42-5.46 14.82-4.72 15.96 1.99 32.17 2.51 48.16.51z"/></g><g fill="#e0e0e0"><path d="M419.97 287.55c4.97-6.08 8.71-13.11 14.12-18.85-.55 7.5-1.59 14.95-2.08 22.46-.36 3.01-.71 6.02-1.07 9.04-3.01 8.31-8.17 15.54-12.64 23.1-5.32 9.5-13.56 16.82-20.54 25.02-.37-.02-1.12-.04-1.49-.05 2.55-11.52-.93-23.23-4.73-34.05 6.12-3.91 11.09-9.28 16.58-13.95l.28-1.73c2.16-.09 3.09-2.2 4.51-3.49-2.68 3.76-6.31 6.63-9.7 9.71 2.1 4.1 5.55 7.67 9.85 9.46 1.39.7 3.11.06 3.76-1.34 4.47-7.57 5.31-16.89 3.15-25.33zM142.56 326.5c5.48-4.51 13.43-4.02 19.25-.45 7.98-.87 16.01-1.27 24.03-1.06 7.71 7.04 10.03 17.97 9.75 28.01-.13 14.34-5.32 28.65-2.26 42.95 1.63 8.14 8.83 13.95 16.63 15.83 3.25.75 7.25 1.7 10.06-.71 2.46-2.3 2.6-5.96 2.62-9.09-.08-10.48-2.5-20.74-4.05-31.06.25-.42.76-1.25 1.02-1.66 2.15 2.88 3.75 6.33 6.89 8.31 3.33 2.25 6.12 5.31 9.74 7.13 7.76 2.64 15.59 5.21 23.74 6.43 8.41 2.39 17.18 2.56 25.8 3.78l.08.31c1.66 5.32 3.13 10.7 4.72 16.05l.13.43c-1.22-.16-2.48-.36-3.66.11-6.96 2.32-14.26 3.44-21.53 4.25-.07-.23-.2-.69-.26-.92-1.41-4.22-3.6-8.47-7.43-10.96-3.42-2.25-8.06-2.06-11.51.04-5.03 2.89-8.09 8.25-9.38 13.78-9.34-.04-18.73-.15-28.01-1.24-6.01-1.45-12.26-.86-18.24-2.42-6.29-1.62-12.92-1.65-19.02-4.04-5.11-.96-10.23-2.03-15-4.17 3.23-3.57 6.77-7.35 7.55-12.3-4.37 3.06-8.48 7.23-14.17 7.46-4.89.91-9.18-1.85-13.31-3.99-4.67-2.72-5.31-8.5-7.9-12.77-1.03 2.54-1.04 5.48-2.71 7.74-5.05-2.08-8.85-6.1-13.18-9.28-5.43-3.83-8.2-10.18-13.37-14.3-.5-8.01 3.21-15.76 8.9-21.23 7.91-7.7 18.18-12.4 28.52-15.87 2.59-.71 3.3-3.81 5.56-5.09m1.34 7.47c-2.02 4.88 1.87 10.93 7.13 11.17 4.63.66 9.17-3.49 9.07-8.12-.14-1.23.14-3.16-1.44-3.53-2.97-.83-6.79-1.59-7.29-5.26-3.22.6-6.37 2.51-7.47 5.74m-6.57-.97c-.62 3.62-.96 7.34-.51 11.01 1.99 4.13 5.59 7.32 9.4 9.76 5.47 1.79 12.01.88 16.43-2.97 2.15-2.37 4.87-5.06 4.26-8.57-1.86 1.75-3.74 3.56-6.11 4.6-3.94 2.3-8.66 1.06-12.86.31-6.25-2.11-8.01-8.85-10.61-14.14m8.56 44.75l-1.22-.06c-4.69.49-8.98 4.33-9.18 9.17-.65 6.08 5.37 11.8 11.42 10.46 5.94-.79 9.63-7.47 7.77-13.04l-.8-.22.37-.98c1.64-1.05 2.98-2.49 4.06-4.1-1.89-2.07-4.84-2.26-7.4-2.89-1.74-.4-4.83-.83-5.02 1.66zM218.2 349.8c1.48-7.16 5.22-14.69 12.49-17.38.63 4.77 1.29 9.54 1.99 14.3-3.57 1.32-7.35 1.86-11.06 2.66-1.14.12-2.28.26-3.42.42zM252.9 333.93c4.16.72 8.31 1.49 12.47 2.25-3.65 1.57-7.3 3.15-11.05 4.49-.57-2.01-1.11-4.01-1.56-6.04l.14-.7zM349.5 355.16c4.28-2.14 8.04-5.2 11.3-8.69 1 3.33 2.17 6.63 3.8 9.72-5.04-.01-10.1-.3-15.1-1.03z"/></g><g fill="#c1272d"><path d="M414.21 293.84c2.14-1.9 3.76-4.27 5.76-6.29 2.16 8.44 1.32 17.76-3.15 25.33-.65 1.4-2.37 2.04-3.76 1.34-4.3-1.79-7.75-5.36-9.85-9.46 3.39-3.08 7.02-5.95 9.7-9.71.32-.3.97-.91 1.3-1.21zM377.15 323.25c4.96-2.73 9.69-5.86 14.39-9.03 3.8 10.82 7.28 22.53 4.73 34.05l-.56 2.82c-4.83 2.42-7.78 7.21-11.96 10.49-5.94-1.62-11.96-3.09-18.1-3.6-.37-.59-.72-1.19-1.05-1.79-1.63-3.09-2.8-6.39-3.8-9.72 4.85-5.64 8.72-12.04 12.41-18.48.99-1.82 2.01-3.75 3.94-4.74zM185.84 324.99c1.32-.02 2.64-.01 3.96.05 18.54 1.21 36.91 4.18 55.17 7.54 2.59.62 5.52.48 7.79 2.05.45 2.03.99 4.03 1.56 6.04-7.1 2.3-14.16 5.44-21.64 6.05-.7-4.76-1.36-9.53-1.99-14.3-7.27 2.69-11.01 10.22-12.49 17.38-2.97.93-7.66-.11-9.2 3.21 1.31 3.04 5.91 2.31 8.63 3.57.01 4.79.27 9.59.96 14.34 1.55 10.32 3.97 20.58 4.05 31.06-.02 3.13-.16 6.79-2.62 9.09-2.81 2.41-6.81 1.46-10.06.71-7.8-1.88-15-7.69-16.63-15.83-3.06-14.3 2.13-28.61 2.26-42.95.28-10.04-2.04-20.97-9.75-28.01zM300.01 395.07c3.56.01 7.37.58 10.59-1.37l.82 1.1c1.91 2.56 3.65 5.24 5.38 7.93-8.25 4.12-17.21 6.68-26.22 8.54-1.59-5.35-3.06-10.73-4.72-16.05 4.71-.4 9.43-.23 14.15-.15zM246.32 404.22c3.45-2.1 8.09-2.29 11.51-.04 3.83 2.49 6.02 6.74 7.43 10.96-9.05 3.26-18.87 2.63-28.32 2.86 1.29-5.53 4.35-10.89 9.38-13.78z"/></g><g fill="#cdcbcb"><path d="M430.94 300.2c2.13-1.46 4.25-2.95 6.27-4.56-2.07 12.69-5.89 25.07-11.06 36.83-4.35.81-9.82 1.15-12.26 5.49-2.8 5.35-1.35 11.62-1.37 17.38-9.74 12.57-20.86 24.05-33.11 34.18-7.28-7.38-20.05-10.16-28.51-3.17 3.45 5.45 7.57 10.46 11.22 15.79-11.58 7.5-23.89 13.78-36.59 19.14-2.33-6.44-5.27-12.65-8.73-18.55 8.08-2.61 15.85-6.09 23.17-10.4-5.74-.03-11.39 1.2-17.12 1.15-3.85-.02-7.7.38-11.43 1.32l-.82-1.1c-3.96-5.1-8.27-10.01-13.27-14.1-2.72-2.33-7.12-2.7-9.69.04-4.22 3.92-3.37 10.3-1.86 15.27-8.62-1.22-17.39-1.39-25.8-3.78-8.15-1.22-15.98-3.79-23.74-6.43-3.62-1.82-6.41-4.88-9.74-7.13-3.14-1.98-4.74-5.43-6.89-8.31-.26.41-.77 1.24-1.02 1.66-.69-4.75-.95-9.55-.96-14.34 5.77 1.41 11.66 2.27 17.5 3.34 1.65 6.6 2.11 13.95 6.42 19.5 3.87 4.66 10.67 3.92 15.7 1.81 2.49-1.12 6.23-2.04 6.52-5.3-.33-4.28-2.14-8.28-3.04-12.46 6.74.17 13.49.45 20.24.33 8.92-.15 17.81.78 26.73.58 6.42 6.48 13.92 12.05 22.43 15.44 1.28.81 3.17.7 3.77-.89 2.93-6.49 5.62-13.26 6.18-20.43 3.24-.79 6.39-1.94 9.42-3.34 5 .73 10.06 1.02 15.1 1.03.33.6.68 1.2 1.05 1.79 2.8 4.64 6.94 8.94 12.4 10.19 4.65 1.15 10.2.02 13.21-3.92 2.82-3.81 3.44-8.66 4.45-13.16l.56-2.82c.37.01 1.12.03 1.49.05 6.98-8.2 15.22-15.52 20.54-25.02 4.47-7.56 9.63-14.79 12.64-23.1zM99.58 368.69c5.17 4.12 7.94 10.47 13.37 14.3 4.33 3.18 8.13 7.2 13.18 9.28 1.67-2.26 1.68-5.2 2.71-7.74 2.59 4.27 3.23 10.05 7.9 12.77 4.13 2.14 8.42 4.9 13.31 3.99 5.69-.23 9.8-4.4 14.17-7.46-.78 4.95-4.32 8.73-7.55 12.3 4.77 2.14 9.89 3.21 15 4.17 6.1 2.39 12.73 2.42 19.02 4.04 5.98 1.56 12.23.97 18.24 2.42 9.28 1.09 18.67 1.2 28.01 1.24-1.29 6.19-1.22 12.55-2.39 18.76-7.55.53-15.11-.65-22.64-1.13-2.51-.57-5.94.15-7.57-2.3-3.98-7.82-11.53-13.8-20.24-15.31-6.53-1.25-13.12 1.05-18.65 4.43-1.22.89-3.32 1.27-3.21 3.15-17.23-6.17-34.46-14.05-47.52-27.24-7.74-8.1-14.22-18.26-15.14-29.67zM287.05 411.81c1.18-.47 2.44-.27 3.66-.11 1.87 6.21 3.62 12.45 5.47 18.67l1.76-.08c-6.52 1.45-13.05 2.94-19.65 4-2.28.41-4.59.56-6.89.64-3.58-5.7-4.33-12.47-5.88-18.87 7.27-.81 14.57-1.93 21.53-4.25z"/></g><path fill="#8c8a8a" d="M275.81 299.52c6.74 2.74 11.76 10.28 9.99 17.64-1.57 7.82-8.02 13.33-14.69 16.99-1 .64-2.02 1.24-3.13 1.68-.67-1.36-1.3-1.3-1.88.19l-.73.16c-4.16-.76-8.31-1.53-12.47-2.25l.44-1.51c5.68-1.41 11.27-3.52 15.98-7.07 4.43-3.62 8.38-8.46 8.82-14.39.75-4.03-1.76-7.58-2.33-11.44z"/><path fill="#8d8b8b" d="M355.04 330.77c6.13-.42 12.04-2.34 18.17-2.78-3.69 6.44-7.56 12.84-12.41 18.48-3.26 3.49-7.02 6.55-11.3 8.69-3.03 1.4-6.18 2.55-9.42 3.34-10.62 2.77-21.37 5.35-32.38 5.88-8.92.2-17.81-.73-26.73-.58-6.75.12-13.5-.16-20.24-.33-8.61-.55-17.09-2.19-25.6-3.55-5.84-1.07-11.73-1.93-17.5-3.34-2.72-1.26-7.32-.53-8.63-3.57 1.54-3.32 6.23-2.28 9.2-3.21 1.14-.16 2.28-.3 3.42-.42 1.98.27 4 .58 5.98.09 4.68-1.17 9.51-.14 14.24-.86 10.51-1.28 21.19-1.63 31.48-4.32 5.08-1.47 10.43-1.46 15.58-2.6 5.4-.81 10.55-2.86 16.03-3.14 9.51-.72 18.5-4.63 28.07-4.75 7.45-.32 14.57-3.03 22.04-3.03z"/><path fill="#ab252a" d="M413.89 337.96c2.44-4.34 7.91-4.68 12.26-5.49-3.49 8.16-8.02 15.99-13.63 22.87.02-5.76-1.43-12.03 1.37-17.38z"/><path fill="#686868" opacity=".73" d="M266.1 336.02c.58-1.49 1.21-1.55 1.88-.19l-1.88.19z"/><g fill="#b12329"><path d="M383.75 361.58c4.18-3.28 7.13-8.07 11.96-10.49-1.01 4.5-1.63 9.35-4.45 13.16-3.01 3.94-8.56 5.07-13.21 3.92-5.46-1.25-9.6-5.55-12.4-10.19 6.14.51 12.16 1.98 18.1 3.6zM307.7 364.38c11.01-.53 21.76-3.11 32.38-5.88-.56 7.17-3.25 13.94-6.18 20.43-.6 1.59-2.49 1.7-3.77.89-8.51-3.39-16.01-8.96-22.43-15.44zM235.13 359.92c8.51 1.36 16.99 3 25.6 3.55.9 4.18 2.71 8.18 3.04 12.46-.29 3.26-4.03 4.18-6.52 5.3-5.03 2.11-11.83 2.85-15.7-1.81-4.31-5.55-4.77-12.9-6.42-19.5zM287.64 379.64c2.57-2.74 6.97-2.37 9.69-.04 5 4.09 9.31 9 13.27 14.1-3.22 1.95-7.03 1.38-10.59 1.37-4.72-.08-9.44-.25-14.15.15l-.08-.31c-1.51-4.97-2.36-11.35 1.86-15.27zM350.9 386.35c8.46-6.99 21.23-4.21 28.51 3.17-5.4 4.65-11.2 8.9-17.29 12.62-3.65-5.33-7.77-10.34-11.22-15.79zM290.58 411.27c9.01-1.86 17.97-4.42 26.22-8.54 3.46 5.9 6.4 12.11 8.73 18.55-8.92 3.75-18.18 6.74-27.59 9.01l-1.76.08c-1.85-6.22-3.6-12.46-5.47-18.67l-.13-.43zM265.26 415.14c.06.23.19.69.26.92 1.55 6.4 2.3 13.17 5.88 18.87-12.12 2.02-24.59 2.73-36.85 1.83 1.17-6.21 1.1-12.57 2.39-18.76 9.45-.23 19.27.4 28.32-2.86zM165.45 422.45c5.53-3.38 12.12-5.68 18.65-4.43 8.71 1.51 16.26 7.49 20.24 15.31v1.18c-1.43-.12-2.87-.24-4.29-.35-.75-.09-2.23-.27-2.98-.35-.79-.9-1.75-1.19-2.88-.88-1.94.43-3.88-.23-5.78-.6-8.84-1.73-17.61-3.9-26.17-6.73-.11-1.88 1.99-2.26 3.21-3.15z"/></g><path fill="#eee" d="M145.89 377.75c.19-2.49 3.28-2.06 5.02-1.66 2.56.63 5.51.82 7.4 2.89-1.08 1.61-2.42 3.05-4.06 4.1-1.96-2.83-4.88-4.95-8.36-5.33z"/><path fill="#dfdfdf" d="M322.85 393.48c5.73.05 11.38-1.18 17.12-1.15-7.32 4.31-15.09 7.79-23.17 10.4-1.73-2.69-3.47-5.37-5.38-7.93 3.73-.94 7.58-1.34 11.43-1.32z"/><path fill="#773d3f" opacity=".62" d="M194.19 432.93c1.13-.31 2.09-.02 2.88.88-1.57.85-2.53.56-2.88-.88z"/><path fill="#8f8f8f" d="M204.34 433.33c1.63 2.45 5.06 1.73 7.57 2.3 7.53.48 15.09 1.66 22.64 1.13 12.26.9 24.73.19 36.85-1.83 2.3-.08 4.61-.23 6.89-.64 9.14 4.1 17.9 9.06 26.88 13.52 1.91.92 4.83 3.07 3.1 5.43-11.81 8.86-25.38 16.41-40.32 17.88-15.48 1.36-30.55-5.16-42.61-14.46-8.39-6.56-17.21-12.99-23.4-21.8-.47-.18-1.42-.53-1.89-.7 1.42.11 2.86.23 4.29.35v-1.18z"/></svg>